<svg xmlns="http://www.w3.org/2000/svg" version="1.1" xmlns:xlink="http://www.w3.org/1999/xlink" xmlns:svgjs="http://svgjs.dev/svgjs" width="2000" height="2275" viewBox="0 0 2000 2275"><g transform="matrix(1,0,0,1,-3.438117095936718,-3.6693548387097508)"><svg viewBox="0 0 218 248" data-background-color="#ffffff" preserveAspectRatio="xMidYMid meet" height="2275" width="2000" xmlns="http://www.w3.org/2000/svg" xmlns:xlink="http://www.w3.org/1999/xlink"><g id="tight-bounds" transform="matrix(1,0,0,1,0.3747547634571049,0.4000000000000057)"><svg viewBox="0 0 217.2504904730858 247.2" height="247.2" width="217.2504904730858"><g><svg viewBox="0 0 395.52 450.0452164093623" height="247.2" width="217.2504904730858"><g transform="matrix(1,0,0,1,0,273.53556003487705)"><svg viewBox="0 0 395.52 176.50965637448525" height="176.50965637448525" width="395.52"><g id="textblocktransform"><svg viewBox="0 0 395.52 176.50965637448525" height="176.50965637448525" width="395.52" id="textblock"><g><svg viewBox="0 0 395.52 121.3885562444641" height="121.3885562444641" width="395.52"><g transform="matrix(1,0,0,1,0,0)"><svg width="395.52" viewBox="2.15 -34 112.89 34.65" height="121.3885562444641" data-palette-color="#3d3839"><path d="M10.75 0.6L10.75 0.6Q6.6 0.6 4.8-1.38 3-3.35 3-6.6L3-6.6Q3-7.45 3.15-8.65 3.3-9.85 3.55-11.55L3.55-11.55Q3.95-14 4.15-15.93 4.35-17.85 4.35-20.15L4.35-20.15Q4.35-22.8 4.2-24.45L4.2-24.45Q3.35-23.95 2.95-23.95L2.95-23.95Q2.15-23.95 2.15-25.75L2.15-25.75Q2.15-27.15 2.78-28.13 3.4-29.1 4.85-29.95L4.85-29.95Q6.3-30.85 8.53-31.5 10.75-32.15 13.3-32.15L13.3-32.15Q17.45-32.15 19.6-30.25 21.75-28.35 21.75-25.25L21.75-25.25Q21.75-23.25 20.9-21.55 20.05-19.85 18.5-18.55L18.5-18.55Q24.75-17.55 24.75-11.35L24.75-11.35Q24.75-8 22.85-5.25 20.95-2.5 17.7-0.95L17.7-0.95Q14.55 0.6 10.75 0.6ZM12.75-4.95L12.75-4.95Q15-4.95 16.82-5.58 18.65-6.2 19.75-7.4 20.85-8.6 20.85-10.2L20.85-10.2Q20.85-12.25 19.4-13.1 17.95-13.95 16.05-13.95L16.05-13.95Q15.25-13.95 14.05-13.8L14.05-13.8Q13.55-13.7 12.9-13.7L12.9-13.7Q11.8-13.7 11.08-14.6 10.35-15.5 10.35-16.85L10.35-16.85Q10.35-17.8 11.2-18.05L11.2-18.05Q17.3-19.65 17.3-23.6L17.3-23.6Q17.3-26.75 12.95-26.75L12.95-26.75Q11.35-26.75 9-26.2L9-26.2Q9-23.75 8.75-21.08 8.5-18.4 8-15.5L8-15.5Q7.7-13.5 7.53-12.13 7.35-10.75 7.35-9.9L7.35-9.9Q7.35-7.2 8.7-6.08 10.05-4.95 12.75-4.95ZM36.7 0.65L36.7 0.65Q33.25 0.65 31.17-1.23 29.1-3.1 29.1-6.75L29.1-6.75Q29.1-8.45 29.57-10.05 30.05-11.65 30.85-13.05L30.85-13.05Q30.05-12.55 29.65-12.55L29.65-12.55Q29.05-12.55 28.82-13.23 28.6-13.9 28.6-14.55L28.6-14.55Q28.6-15.7 29.07-16.38 29.55-17.05 30-17.4L30-17.4Q31.05-18.3 33.3-19.38 35.55-20.45 38.7-20.45L38.7-20.45Q43-20.45 45.37-18.05 47.75-15.65 47.75-11.35L47.75-11.35Q47.75-8 46.35-5.28 44.95-2.55 42.47-0.95 40 0.65 36.7 0.65ZM38.25-4.45L38.25-4.45Q40.75-4.45 42.47-6.03 44.2-7.6 44.2-10.2L44.2-10.2Q44.2-12.9 42.45-14.05 40.7-15.2 38.4-15.2L38.4-15.2Q37.35-15.2 36.5-15 35.65-14.8 34.9-14.5L34.9-14.5Q34.2-13.5 33.65-12.25 33.1-11 33.1-9.5L33.1-9.5Q33.1-7 34.6-5.73 36.1-4.45 38.25-4.45ZM57.8 0.65L57.8 0.65Q54.8 0.65 52.97-1.23 51.15-3.1 51.15-6.6L51.15-6.6Q51.15-9.1 52.12-11.58 53.1-14.05 54.95-16.05 56.8-18.05 59.4-19.25 62-20.45 65.25-20.45L65.25-20.45Q68.25-20.45 70.37-19.43 72.5-18.4 72.5-16.65L72.5-16.65Q72.5-16.2 72.4-15.48 72.3-14.75 72.15-14.3L72.15-14.3Q72-13.9 71.72-13.58 71.45-13.25 71-13.25L71-13.25Q70.8-13.25 70.25-13.4L70.25-13.4Q70.05-12.35 69.95-11.35 69.85-10.35 69.85-9.35L69.85-9.35Q69.85-7.45 70.42-5.98 71-4.5 72.7-4.15L72.7-4.15Q73.15-4.05 73.42-3.85 73.7-3.65 73.7-3L73.7-3Q73.7-2.45 73.42-1.6 73.15-0.75 72.37-0.08 71.6 0.6 70.15 0.6L70.15 0.6Q68.2 0.6 67.15-0.83 66.1-2.25 66.1-4.9L66.1-4.9Q64.75-2.45 62.67-0.9 60.6 0.65 57.8 0.65ZM59.4-4.55L59.4-4.55Q61.4-4.55 62.92-5.8 64.45-7.05 65.3-8.95L65.3-8.95Q65.85-10.15 66.15-11.58 66.45-13 66.55-14.4L66.55-14.4Q65.7-14.8 64.6-15.05 63.5-15.3 62.3-15.3L62.3-15.3Q59.25-15.3 57.27-13.5 55.3-11.7 55.3-9L55.3-9Q55.3-7 56.4-5.78 57.5-4.55 59.4-4.55ZM79.79 0.55L79.79 0.55Q78.99 0.55 78.52 0.28 78.04 0 78.19-0.65L78.19-0.65Q78.74-2.8 79.12-5.03 79.49-7.25 79.49-9.3L79.49-9.3Q79.49-11.95 79.17-13.18 78.84-14.4 78.29-14.88 77.74-15.35 76.94-15.6L76.94-15.6Q76.59-15.75 76.32-16 76.04-16.25 76.04-16.7L76.04-16.7Q76.04-17.4 76.59-18.25 77.14-19.1 78.14-19.73 79.14-20.35 80.44-20.35L80.44-20.35Q82.14-20.35 82.82-19.18 83.49-18 83.49-16.1L83.49-16.1Q84.39-18.1 85.72-19.28 87.04-20.45 89.04-20.45L89.04-20.45Q90.39-20.45 91.29-19.85 92.19-19.25 92.19-17.9L92.19-17.9Q92.19-16.55 91.32-15.38 90.44-14.2 89.54-14.2L89.54-14.2Q89.39-14.2 89.19-14.25 88.99-14.3 88.84-14.5L88.84-14.5Q88.19-15.3 87.24-15.3L87.24-15.3Q85.79-15.3 84.69-13.4 83.59-11.5 83.49-8.15L83.49-8.15Q83.54-6.9 83.57-5.6 83.59-4.3 83.59-3.7L83.59-3.7Q83.59-1.85 82.57-0.65 81.54 0.55 79.79 0.55ZM98.94 0.65L98.94 0.65Q95.94 0.65 94.22-1.35 92.49-3.35 92.49-6.8L92.49-6.8Q92.49-9.35 93.32-11.8 94.14-14.25 95.64-16.2 97.14-18.15 99.14-19.3 101.14-20.45 103.49-20.45L103.49-20.45Q104.99-20.45 106.17-20 107.34-19.55 108.24-18.85L108.24-18.85Q108.19-22.25 107.89-24.95 107.59-27.65 106.44-29.95L106.44-29.95Q106.24-30.35 106.12-30.68 105.99-31 105.99-31.3L105.99-31.3Q105.99-32 106.57-32.6 107.14-33.2 107.99-33.6 108.84-34 109.59-34L109.59-34Q110.94-34 111.62-32.83 112.29-31.65 112.49-29.63 112.69-27.6 112.69-25L112.69-25Q112.69-21.2 112.34-18.15 111.99-15.1 111.69-12.8L111.69-12.8Q111.49-11.3 111.34-10.2 111.19-9.1 111.19-8.4L111.19-8.4Q111.19-4.85 114.24-4.2L114.24-4.2Q115.04-4.05 115.04-3.15L115.04-3.15Q115.04-2.6 114.72-1.75 114.39-0.9 113.54-0.23 112.69 0.45 111.09 0.45L111.09 0.45Q108.94 0.45 108.19-1 107.44-2.45 107.44-5.4L107.44-5.4Q106.04-2.85 103.89-1.1 101.74 0.65 98.94 0.65ZM100.49-4.7L100.49-4.7Q101.89-4.7 103.29-5.6 104.69-6.5 105.79-8.05L105.79-8.05Q106.44-9 106.97-10.23 107.49-11.45 107.94-12.7L107.94-12.7Q105.39-15 102.29-15L102.29-15Q99.59-15 97.99-13.38 96.39-11.75 96.39-9.35L96.39-9.35Q96.39-7.3 97.59-6 98.79-4.7 100.49-4.7Z" opacity="1" transform="matrix(1,0,0,1,0,0)" fill="#3d3839" class="wordmark-text-0" data-fill-palette-color="primary" id="text-0"></path></svg></g></svg></g><g transform="matrix(1,0,0,1,75.54432,150.0454810484322)"><svg viewBox="0 0 244.43135999999998 26.464175326053038" height="26.464175326053038" width="244.43135999999998"><g transform="matrix(1,0,0,1,0,0)"><svg width="244.43135999999998" viewBox="1.45 -34 320.47 34.7" height="26.464175326053038" data-palette-color="#ffc604"><path d="M8.1 0.65L8.1 0.65Q5.1 0.65 3.28-1.23 1.45-3.1 1.45-6.6L1.45-6.6Q1.45-9.1 2.43-11.58 3.4-14.05 5.25-16.05 7.1-18.05 9.7-19.25 12.3-20.45 15.55-20.45L15.55-20.45Q18.55-20.45 20.68-19.43 22.8-18.4 22.8-16.65L22.8-16.65Q22.8-16.2 22.7-15.48 22.6-14.75 22.45-14.3L22.45-14.3Q22.3-13.9 22.03-13.58 21.75-13.25 21.3-13.25L21.3-13.25Q21.1-13.25 20.55-13.4L20.55-13.4Q20.35-12.35 20.25-11.35 20.15-10.35 20.15-9.35L20.15-9.35Q20.15-7.45 20.73-5.98 21.3-4.5 23-4.15L23-4.15Q23.45-4.05 23.73-3.85 24-3.65 24-3L24-3Q24-2.45 23.73-1.6 23.45-0.75 22.68-0.08 21.9 0.6 20.45 0.6L20.45 0.6Q18.5 0.6 17.45-0.83 16.4-2.25 16.4-4.9L16.4-4.9Q15.05-2.45 12.98-0.9 10.9 0.65 8.1 0.65ZM9.7-4.55L9.7-4.55Q11.7-4.55 13.23-5.8 14.75-7.05 15.6-8.95L15.6-8.95Q16.15-10.15 16.45-11.58 16.75-13 16.85-14.4L16.85-14.4Q16-14.8 14.9-15.05 13.8-15.3 12.6-15.3L12.6-15.3Q9.55-15.3 7.58-13.5 5.6-11.7 5.6-9L5.6-9Q5.6-7 6.7-5.78 7.8-4.55 9.7-4.55ZM51.7 0.65L51.7 0.65Q49.85 0.65 48.52 0 47.2-0.65 46.2-1.65L46.2-1.65Q45.7-0.8 45.02-0.13 44.35 0.55 43.5 0.55L43.5 0.55Q42.95 0.55 42.45 0.23 41.95-0.1 42.05-0.65L42.05-0.65Q42.8-4.65 43.32-8.75 43.85-12.85 43.85-17.1L43.85-17.1Q43.85-20.65 43.6-23.75 43.35-26.85 42.05-29.45L42.05-29.45Q41.8-29.95 41.62-30.4 41.45-30.85 41.45-31.25L41.45-31.25Q41.45-32.2 42.55-33.1 43.65-34 44.9-34L44.9-34Q46.7-34 47.35-31.8 48-29.6 48-25.3L48-25.3Q48-21.65 47.67-18.63 47.35-15.6 46.95-13.45L46.95-13.45Q48.35-16.4 50.77-18.43 53.2-20.45 56.25-20.45L56.25-20.45Q59.3-20.45 61.02-18.43 62.75-16.4 62.75-12.95L62.75-12.95Q62.75-10.4 61.95-7.98 61.15-5.55 59.7-3.6 58.25-1.65 56.22-0.5 54.2 0.65 51.7 0.65ZM52.85-4.75L52.85-4.75Q55.7-4.75 57.25-6.55 58.8-8.35 58.8-10.7L58.8-10.7Q58.8-12.75 57.67-13.88 56.55-15 54.7-15L54.7-15Q52.85-15 51.4-13.88 49.95-12.75 48.95-10.93 47.95-9.1 47.4-7L47.4-7Q48.55-5.9 49.97-5.33 51.4-4.75 52.85-4.75ZM74.49 0.65L74.49 0.65Q71.04 0.65 68.97-1.23 66.89-3.1 66.89-6.75L66.89-6.75Q66.89-8.45 67.37-10.05 67.84-11.65 68.64-13.05L68.64-13.05Q67.84-12.55 67.44-12.55L67.44-12.55Q66.84-12.55 66.62-13.23 66.39-13.9 66.39-14.55L66.39-14.55Q66.39-15.7 66.87-16.38 67.34-17.05 67.79-17.4L67.79-17.4Q68.84-18.3 71.09-19.38 73.34-20.45 76.49-20.45L76.49-20.45Q80.79-20.45 83.17-18.05 85.54-15.65 85.54-11.35L85.54-11.35Q85.54-8 84.14-5.28 82.74-2.55 80.27-0.95 77.79 0.65 74.49 0.65ZM76.04-4.45L76.04-4.45Q78.54-4.45 80.27-6.03 81.99-7.6 81.99-10.2L81.99-10.2Q81.99-12.9 80.24-14.05 78.49-15.2 76.19-15.2L76.19-15.2Q75.14-15.2 74.29-15 73.44-14.8 72.69-14.5L72.69-14.5Q71.99-13.5 71.44-12.25 70.89-11 70.89-9.5L70.89-9.5Q70.89-7 72.39-5.73 73.89-4.45 76.04-4.45ZM95.59 0.65L95.59 0.65Q92.59 0.65 90.77-1.23 88.94-3.1 88.94-6.6L88.94-6.6Q88.94-9.1 89.92-11.58 90.89-14.05 92.74-16.05 94.59-18.05 97.19-19.25 99.79-20.45 103.04-20.45L103.04-20.45Q106.04-20.45 108.17-19.43 110.29-18.4 110.29-16.65L110.29-16.65Q110.29-16.2 110.19-15.48 110.09-14.75 109.94-14.3L109.94-14.3Q109.79-13.9 109.52-13.58 109.24-13.25 108.79-13.25L108.79-13.25Q108.59-13.25 108.04-13.4L108.04-13.4Q107.84-12.35 107.74-11.35 107.64-10.35 107.64-9.35L107.64-9.35Q107.64-7.45 108.22-5.98 108.79-4.5 110.49-4.15L110.49-4.15Q110.94-4.05 111.22-3.85 111.49-3.65 111.49-3L111.49-3Q111.49-2.45 111.22-1.6 110.94-0.75 110.17-0.08 109.39 0.6 107.94 0.6L107.94 0.6Q105.99 0.6 104.94-0.83 103.89-2.25 103.89-4.9L103.89-4.9Q102.54-2.45 100.47-0.9 98.39 0.65 95.59 0.65ZM97.19-4.55L97.19-4.55Q99.19-4.55 100.72-5.8 102.24-7.05 103.09-8.95L103.09-8.95Q103.64-10.15 103.94-11.58 104.24-13 104.34-14.4L104.34-14.4Q103.49-14.8 102.39-15.05 101.29-15.3 100.09-15.3L100.09-15.3Q97.04-15.3 95.07-13.5 93.09-11.7 93.09-9L93.09-9Q93.09-7 94.19-5.78 95.29-4.55 97.19-4.55ZM117.59 0.55L117.59 0.55Q116.79 0.55 116.31 0.28 115.84 0 115.99-0.65L115.99-0.65Q116.54-2.8 116.91-5.03 117.29-7.25 117.29-9.3L117.29-9.3Q117.29-11.95 116.96-13.18 116.64-14.4 116.09-14.88 115.54-15.35 114.74-15.6L114.74-15.6Q114.39-15.75 114.11-16 113.84-16.25 113.84-16.7L113.84-16.7Q113.84-17.4 114.39-18.25 114.94-19.1 115.94-19.73 116.94-20.35 118.24-20.35L118.24-20.35Q119.94-20.35 120.61-19.18 121.29-18 121.29-16.1L121.29-16.1Q122.19-18.1 123.51-19.28 124.84-20.45 126.84-20.45L126.84-20.45Q128.19-20.45 129.09-19.85 129.99-19.25 129.99-17.9L129.99-17.9Q129.99-16.55 129.11-15.38 128.24-14.2 127.34-14.2L127.34-14.2Q127.19-14.2 126.99-14.25 126.79-14.3 126.64-14.5L126.64-14.5Q125.99-15.3 125.04-15.3L125.04-15.3Q123.59-15.3 122.49-13.4 121.39-11.5 121.29-8.15L121.29-8.15Q121.34-6.9 121.36-5.6 121.39-4.3 121.39-3.7L121.39-3.7Q121.39-1.85 120.36-0.65 119.34 0.55 117.59 0.55ZM136.74 0.65L136.74 0.65Q133.74 0.65 132.01-1.35 130.28-3.35 130.28-6.8L130.28-6.8Q130.28-9.35 131.11-11.8 131.94-14.25 133.44-16.2 134.94-18.15 136.94-19.3 138.94-20.45 141.28-20.45L141.28-20.45Q142.78-20.45 143.96-20 145.14-19.55 146.03-18.85L146.03-18.85Q145.99-22.25 145.69-24.95 145.39-27.65 144.24-29.95L144.24-29.95Q144.03-30.35 143.91-30.68 143.78-31 143.78-31.3L143.78-31.3Q143.78-32 144.36-32.6 144.94-33.2 145.78-33.6 146.64-34 147.39-34L147.39-34Q148.74-34 149.41-32.83 150.09-31.65 150.29-29.63 150.49-27.6 150.49-25L150.49-25Q150.49-21.2 150.14-18.15 149.79-15.1 149.49-12.8L149.49-12.8Q149.29-11.3 149.14-10.2 148.99-9.1 148.99-8.4L148.99-8.4Q148.99-4.85 152.04-4.2L152.04-4.2Q152.84-4.05 152.84-3.15L152.84-3.15Q152.84-2.6 152.51-1.75 152.19-0.9 151.34-0.23 150.49 0.45 148.89 0.45L148.89 0.45Q146.74 0.45 145.99-1 145.24-2.45 145.24-5.4L145.24-5.4Q143.84-2.85 141.69-1.1 139.53 0.65 136.74 0.65ZM138.28-4.7L138.28-4.7Q139.69-4.7 141.09-5.6 142.49-6.5 143.59-8.05L143.59-8.05Q144.24-9 144.76-10.23 145.28-11.45 145.74-12.7L145.74-12.7Q143.19-15 140.09-15L140.09-15Q137.39-15 135.78-13.38 134.19-11.75 134.19-9.35L134.19-9.35Q134.19-7.3 135.39-6 136.59-4.7 138.28-4.7ZM177.88 0.65L177.88 0.65Q174.83 0.65 173.5-1.38 172.18-3.4 172.18-6.6L172.18-6.6Q172.18-7.75 172.31-8.85 172.43-9.95 172.58-11.05L172.58-11.05Q172.73-12.15 172.88-13.2 173.03-14.25 173.13-15.2L173.13-15.2Q172.08-14.9 171.03-14.9L171.03-14.9Q169.93-14.9 169.93-15.8L169.93-15.8Q169.93-16.75 170.78-18.13 171.63-19.5 172.91-20.85 174.18-22.2 175.46-23.13 176.73-24.05 177.63-24.05L177.63-24.05Q178.73-24.05 178.73-22.15L178.73-22.15Q178.73-21.65 178.66-21.13 178.58-20.6 178.48-20.05L178.48-20.05Q179.43-20.25 180.41-20.4 181.38-20.55 182.28-20.55L182.28-20.55Q183.43-20.55 184.06-20.15 184.68-19.75 184.68-18.6L184.68-18.6Q184.68-17.4 184.11-16.2 183.53-15 182.83-15L182.83-15Q182.68-15 182.33-15.05 181.98-15.1 181.48-15.2L181.48-15.2Q180.83-15.35 179.83-15.5 178.83-15.65 177.43-15.65L177.43-15.65Q177.08-14.1 176.81-12.48 176.53-10.85 176.53-9.55L176.53-9.55Q176.53-6.65 177.98-5.6 179.43-4.55 182.18-4.55L182.18-4.55Q183.03-4.55 183.38-4.28 183.73-4 183.73-3.3L183.73-3.3Q183.73-1.65 182.03-0.5 180.33 0.65 177.88 0.65ZM195.23 0.65L195.23 0.65Q191.78 0.65 189.7-1.23 187.63-3.1 187.63-6.75L187.63-6.75Q187.63-8.45 188.1-10.05 188.58-11.65 189.38-13.05L189.38-13.05Q188.58-12.55 188.18-12.55L188.18-12.55Q187.58-12.55 187.35-13.23 187.13-13.9 187.13-14.55L187.13-14.55Q187.13-15.7 187.6-16.38 188.08-17.05 188.53-17.4L188.53-17.4Q189.58-18.3 191.83-19.38 194.08-20.45 197.23-20.45L197.23-20.45Q201.53-20.45 203.9-18.05 206.28-15.65 206.28-11.35L206.28-11.35Q206.28-8 204.88-5.28 203.48-2.55 201-0.95 198.53 0.65 195.23 0.65ZM196.78-4.45L196.78-4.45Q199.28-4.45 201-6.03 202.73-7.6 202.73-10.2L202.73-10.2Q202.73-12.9 200.98-14.05 199.23-15.2 196.93-15.2L196.93-15.2Q195.88-15.2 195.03-15 194.18-14.8 193.43-14.5L193.43-14.5Q192.73-13.5 192.18-12.25 191.63-11 191.63-9.5L191.63-9.5Q191.63-7 193.13-5.73 194.63-4.45 196.78-4.45ZM230.87 0.65L230.87 0.65Q227.87 0.65 226.15-1.35 224.42-3.35 224.42-6.8L224.42-6.8Q224.42-9.35 225.25-11.8 226.07-14.25 227.57-16.2 229.07-18.15 231.07-19.3 233.07-20.45 235.42-20.45L235.42-20.45Q236.92-20.45 238.1-20 239.27-19.55 240.17-18.85L240.17-18.85Q240.12-22.25 239.82-24.95 239.52-27.65 238.37-29.95L238.37-29.95Q238.17-30.35 238.05-30.68 237.92-31 237.92-31.3L237.92-31.3Q237.92-32 238.5-32.6 239.07-33.2 239.92-33.6 240.77-34 241.52-34L241.52-34Q242.87-34 243.55-32.83 244.22-31.65 244.42-29.63 244.62-27.6 244.62-25L244.62-25Q244.62-21.2 244.27-18.15 243.92-15.1 243.62-12.8L243.62-12.8Q243.42-11.3 243.27-10.2 243.12-9.1 243.12-8.4L243.12-8.4Q243.12-4.85 246.17-4.2L246.17-4.2Q246.97-4.05 246.97-3.15L246.97-3.15Q246.97-2.6 246.65-1.75 246.32-0.9 245.47-0.23 244.62 0.45 243.02 0.45L243.02 0.45Q240.87 0.45 240.12-1 239.37-2.45 239.37-5.4L239.37-5.4Q237.97-2.85 235.82-1.1 233.67 0.65 230.87 0.65ZM232.42-4.7L232.42-4.7Q233.82-4.7 235.22-5.6 236.62-6.5 237.72-8.05L237.72-8.05Q238.37-9 238.9-10.23 239.42-11.45 239.87-12.7L239.87-12.7Q237.32-15 234.22-15L234.22-15Q231.52-15 229.92-13.38 228.32-11.75 228.32-9.35L228.32-9.35Q228.32-7.3 229.52-6 230.72-4.7 232.42-4.7ZM253.22 0.55L253.22 0.55Q252.42 0.55 251.95 0.28 251.47 0 251.62-0.65L251.62-0.65Q252.17-2.8 252.55-5.03 252.92-7.25 252.92-9.3L252.92-9.3Q252.92-11.95 252.6-13.18 252.27-14.4 251.72-14.88 251.17-15.35 250.37-15.6L250.37-15.6Q250.02-15.75 249.75-16 249.47-16.25 249.47-16.7L249.47-16.7Q249.47-17.4 250.02-18.25 250.57-19.1 251.57-19.73 252.57-20.35 253.87-20.35L253.87-20.35Q255.57-20.35 256.25-19.18 256.92-18 256.92-16.1L256.92-16.1Q257.82-18.1 259.15-19.28 260.47-20.45 262.47-20.45L262.47-20.45Q263.82-20.45 264.72-19.85 265.62-19.25 265.62-17.9L265.62-17.9Q265.62-16.55 264.75-15.38 263.87-14.2 262.97-14.2L262.97-14.2Q262.82-14.2 262.62-14.25 262.42-14.3 262.27-14.5L262.27-14.5Q261.62-15.3 260.67-15.3L260.67-15.3Q259.22-15.3 258.12-13.4 257.02-11.5 256.92-8.15L256.92-8.15Q256.97-6.9 257-5.6 257.02-4.3 257.02-3.7L257.02-3.7Q257.02-1.85 256-0.65 254.97 0.55 253.22 0.55ZM272.52 0.65L272.52 0.65Q269.52 0.65 267.69-1.23 265.87-3.1 265.87-6.6L265.87-6.6Q265.87-9.1 266.84-11.58 267.82-14.05 269.67-16.05 271.52-18.05 274.12-19.25 276.72-20.45 279.97-20.45L279.97-20.45Q282.97-20.45 285.09-19.43 287.22-18.4 287.22-16.65L287.22-16.65Q287.22-16.2 287.12-15.48 287.02-14.75 286.87-14.3L286.87-14.3Q286.72-13.9 286.44-13.58 286.17-13.25 285.72-13.25L285.72-13.25Q285.52-13.25 284.97-13.4L284.97-13.4Q284.77-12.35 284.67-11.35 284.57-10.35 284.57-9.35L284.57-9.35Q284.57-7.45 285.14-5.98 285.72-4.5 287.42-4.15L287.42-4.15Q287.87-4.05 288.14-3.85 288.42-3.65 288.42-3L288.42-3Q288.42-2.45 288.14-1.6 287.87-0.75 287.09-0.08 286.32 0.6 284.87 0.6L284.87 0.6Q282.92 0.6 281.87-0.83 280.82-2.25 280.82-4.9L280.82-4.9Q279.47-2.45 277.39-0.9 275.32 0.65 272.52 0.65ZM274.12-4.55L274.12-4.55Q276.12-4.55 277.64-5.8 279.17-7.05 280.02-8.95L280.02-8.95Q280.57-10.15 280.87-11.58 281.17-13 281.27-14.4L281.27-14.4Q280.42-14.8 279.32-15.05 278.22-15.3 277.02-15.3L277.02-15.3Q273.97-15.3 271.99-13.5 270.02-11.7 270.02-9L270.02-9Q270.02-7 271.12-5.78 272.22-4.55 274.12-4.55ZM298.37 0.7L298.37 0.7Q296.97 0.7 295.99-0.13 295.01-0.95 294.87-3.2L294.87-3.2Q294.76-4.9 294.44-7 294.12-9.1 293.67-10.95 293.22-12.8 292.62-13.75L292.62-13.75Q292.26-14.3 291.84-14.58 291.42-14.85 290.56-14.95L290.56-14.95Q289.67-15 289.67-16.25L289.67-16.25Q289.67-18.3 290.76-19.28 291.87-20.25 293.26-20.25L293.26-20.25Q294.76-20.25 295.72-19.28 296.67-18.3 297.19-16.68 297.72-15.05 297.94-13.05 298.17-11.05 298.17-9L298.17-9Q298.17-8.25 298.14-7.53 298.12-6.8 298.12-6.1L298.12-6.1Q298.12-5.6 298.31-5.28 298.51-4.95 299.31-4.95L299.31-4.95Q300.42-4.95 301.92-5.53 303.42-6.1 304.54-7.45 305.67-8.8 305.67-11.05L305.67-11.05Q305.67-12.2 305.31-12.98 304.97-13.75 304.37-14.45L304.37-14.45Q304.17-14.7 304.01-14.95 303.87-15.2 303.87-15.55L303.87-15.55Q303.87-16.5 304.64-17.07 305.42-17.65 306.39-17.93 307.37-18.2 308.01-18.2L308.01-18.2Q308.67-18.2 309.04-17.88 309.42-17.55 309.62-16.6L309.62-16.6Q309.81-15.95 309.92-15.18 310.01-14.4 310.01-13.4L310.01-13.4Q310.01-11.85 309.89-10.9 309.76-9.95 309.62-9.2L309.62-9.2Q309.47-8.55 309.39-7.93 309.31-7.3 309.31-6.45L309.31-6.45Q309.31-5.55 309.67-5.25 310.01-4.95 310.76-4.95L310.76-4.95Q313.62-4.95 315.42-6.93 317.22-8.9 317.22-11.75L317.22-11.75Q317.22-12.75 316.92-13.63 316.62-14.5 315.87-15.3L315.87-15.3Q315.47-15.8 315.22-16.13 314.97-16.45 314.97-16.95L314.97-16.95Q314.97-17.85 315.79-18.6 316.62-19.35 317.74-19.83 318.87-20.3 319.76-20.3L319.76-20.3Q321.12-20.3 321.51-19.05 321.92-17.8 321.92-16.2L321.92-16.2Q321.92-13.5 321.14-10.58 320.37-7.65 318.92-5.08 317.47-2.5 315.37-0.9 313.26 0.7 310.62 0.7L310.62 0.7Q307.92 0.7 306.92-0.85 305.92-2.4 306.06-4.6L306.06-4.6Q304.56-2.3 302.54-0.8 300.51 0.7 298.37 0.7Z" opacity="1" transform="matrix(1,0,0,1,0,0)" fill="#ffc604" class="slogan-text-1" data-fill-palette-color="secondary" id="text-1"></path></svg></g></svg></g></svg></g></svg></g><g transform="matrix(1,0,0,1,89.64914478652956,0)"><svg viewBox="0 0 216.22171042694086 216.22171042694086" height="216.22171042694086" width="216.22171042694086"><g><svg></svg></g><g id="icon-0"><svg viewBox="0 0 216.22171042694086 216.22171042694086" height="216.22171042694086" width="216.22171042694086"><g><path d="M0 108.111c0-59.708 48.403-108.111 108.111-108.111 59.708 0 108.111 48.403 108.111 108.111 0 59.708-48.403 108.111-108.111 108.111-59.708 0-108.111-48.403-108.111-108.111zM108.111 205.275c53.662 0 97.164-43.502 97.164-97.164 0-53.662-43.502-97.164-97.164-97.164-53.662 0-97.164 43.502-97.164 97.164 0 53.662 43.502 97.164 97.164 97.164z" data-fill-palette-color="accent" fill="#ffc604" stroke="transparent"></path></g><g transform="matrix(1,0,0,1,55.743378412681245,66.24776613851057)"><svg viewBox="0 0 104.73495360157837 83.72617814991972" height="83.72617814991972" width="104.73495360157837"><g><svg xmlns:x="http://ns.adobe.com/Extensibility/1.0/" xmlns:i="http://ns.adobe.com/AdobeIllustrator/10.0/" xmlns:graph="http://ns.adobe.com/Graphs/1.0/" xmlns="http://www.w3.org/2000/svg" xmlns:xlink="http://www.w3.org/1999/xlink" version="1.1" x="0" y="0" viewBox="7 11.230427092500705 50.99957290749929 40.769572907499295" enable-background="new 0 0 64 64" xml:space="preserve" height="83.72617814991972" width="104.73495360157837" class="icon-dxe-0" data-fill-palette-color="accent" id="dxe-0"><g fill="#ffc604" data-fill-palette-color="accent"><path d="M51.758 11.816A2 2 0 0 0 48.93 11.816L17.816 42.929A2 2 0 0 0 17.23 44.343V50H8A1 1 0 1 0 8 52H24.888A2 2 0 0 0 26.302 51.414L57.414 20.301A2 2 0 0 0 57.414 17.473zM29.837 42.222L27.008 39.394 45.393 21.009 48.222 23.837zM24.059 48H21.23V45.171L25.594 40.808 28.423 43.636zM49.637 22.423L46.809 19.595 50.344 16.059 53.172 18.887z" fill="#ffc604" data-fill-palette-color="accent"></path></g></svg><g></g></g></svg></g></svg></g></svg></g><g></g></svg></g><defs></defs></svg><rect width="217.2504904730858" height="247.2" fill="none" stroke="none" visibility="hidden"></rect></g></svg></g></svg>